<svg xmlns="http://www.w3.org/2000/svg" width="28" height="26" viewBox="0 0 28 26" fill="none">
<path d="M0 0.922562C0 0.413044 0.413046 0 0.922564 0H3.69026C4.11369 0.000116348 4.48267 0.28846 4.58514 0.699303L5.33242 3.69025H26.7543C27.0383 3.69033 27.3064 3.82117 27.4812 4.04496C27.656 4.26875 27.718 4.56056 27.6492 4.83607L24.8815 15.9068C24.7791 16.3177 24.4101 16.606 23.9867 16.6061H7.38051C6.95708 16.606 6.58809 16.3177 6.48562 15.9068L2.97066 1.84513H0.922564C0.413046 1.84513 0 1.43208 0 0.922562ZM5.7937 5.53538L8.10011 14.761H23.2671L25.5735 5.53538H5.7937ZM9.22564 20.2964C8.2066 20.2964 7.38051 21.1225 7.38051 22.1415C7.38051 23.1606 8.2066 23.9867 9.22564 23.9867C10.2447 23.9867 11.0708 23.1606 11.0708 22.1415C11.0708 21.1225 10.2447 20.2964 9.22564 20.2964ZM5.53538 22.1415C5.53538 20.1035 7.18757 18.4513 9.22564 18.4513C11.2637 18.4513 12.9159 20.1035 12.9159 22.1415C12.9159 24.1796 11.2637 25.8318 9.22564 25.8318C7.18757 25.8318 5.53538 24.1796 5.53538 22.1415ZM22.1415 20.2964C21.1225 20.2964 20.2964 21.1225 20.2964 22.1415C20.2964 23.1606 21.1225 23.9867 22.1415 23.9867C23.1606 23.9867 23.9867 23.1606 23.9867 22.1415C23.9867 21.1225 23.1606 20.2964 22.1415 20.2964ZM18.4513 22.1415C18.4513 20.1035 20.1035 18.4513 22.1415 18.4513C24.1796 18.4513 25.8318 20.1035 25.8318 22.1415C25.8318 24.1796 24.1796 25.8318 22.1415 25.8318C20.1035 25.8318 18.4513 24.1796 18.4513 22.1415Z" fill="white"/>
</svg>