<svg xmlns="http://www.w3.org/2000/svg" width="32" height="33" viewBox="0 0 32 33" fill="none">
<path d="M30.6496 13.4232L16.7425 0.628768C15.8032 -0.235472 14.3494 -0.205199 13.4468 0.697397L0.656387 13.4879L0 14.1442V33H12.3252V21.235H19.048V33H31.3732V14.0891L30.6496 13.4232ZM15.129 2.24099C15.1488 2.24099 15.1366 2.24526 15.1281 2.25359C15.1194 2.24526 15.1093 2.24099 15.129 2.24099ZM29.1323 30.7591H21.289V21.235C21.289 19.9974 20.2857 18.9941 19.048 18.9941H12.3252C11.0876 18.9941 10.0843 19.9974 10.0843 21.235V30.7591H2.24095V15.0724L15.129 2.28196L15.1307 2.2795L29.1323 15.0724V30.7591Z" fill="#1A4789"/>
</svg>