<svg xmlns="http://www.w3.org/2000/svg" width="31" height="31" viewBox="0 0 31 31" fill="none">
<path d="M20.8254 11.3594C20.8254 14.4962 18.2826 17.0391 15.1458 17.0391C12.0089 17.0391 9.46606 14.4962 9.46606 11.3594C9.46606 8.22256 12.0089 5.67969 15.1458 5.67969C18.2826 5.67969 20.8254 8.22257 20.8254 11.3594Z" fill="#1A4789"/>
<path fill-rule="evenodd" clip-rule="evenodd" d="M0 15.1458C0 6.78102 6.78102 0 15.1458 0C23.5106 0 30.2917 6.78102 30.2917 15.1458C30.2917 23.5106 23.5106 30.2917 15.1458 30.2917C6.78102 30.2917 0 23.5106 0 15.1458ZM15.1458 1.89323C10.0535 1.89323 5.41113 4.81182 3.20358 9.40151C0.995972 13.9919 1.61418 19.4406 4.79366 23.4192C6.13785 21.2534 9.09696 18.9323 15.1458 18.9323C21.1947 18.9323 24.1519 21.2515 25.498 23.4192C28.6775 19.4406 29.2957 13.9919 27.0884 9.40214C24.8811 4.81233 20.2388 1.8935 15.1458 1.89323Z" fill="#1A4789"/>
</svg>