<svg xmlns="http://www.w3.org/2000/svg" width="31" height="29" viewBox="0 0 31 29" fill="none">
<path d="M0 1.02371C0 0.458328 0.45833 0 1.02371 0H4.09483C4.56468 0.0001297 4.97412 0.320084 5.08783 0.77597L5.91703 4.09483H29.6875C30.0026 4.09492 30.3001 4.2401 30.494 4.48843C30.688 4.73675 30.7568 5.06055 30.6805 5.36627L27.6094 17.6508C27.4957 18.1067 27.0863 18.4266 26.6164 18.4267H8.18966C7.71981 18.4266 7.31037 18.1067 7.19667 17.6508L3.29634 2.04741H1.02371C0.458329 2.04741 0 1.58908 0 1.02371ZM6.42888 6.14225L8.98815 16.3793H25.8179L28.3772 6.14225H6.42888ZM10.2371 22.5216C9.10632 22.5216 8.18966 23.4382 8.18966 24.569C8.18966 25.6997 9.10632 26.6164 10.2371 26.6164C11.3678 26.6164 12.2845 25.6997 12.2845 24.569C12.2845 23.4382 11.3678 22.5216 10.2371 22.5216ZM6.14225 24.569C6.14225 22.3075 7.97556 20.4742 10.2371 20.4742C12.4986 20.4742 14.3319 22.3075 14.3319 24.569C14.3319 26.8305 12.4986 28.6638 10.2371 28.6638C7.97556 28.6638 6.14225 26.8305 6.14225 24.569ZM24.569 22.5216C23.4382 22.5216 22.5216 23.4382 22.5216 24.569C22.5216 25.6997 23.4382 26.6164 24.569 26.6164C25.6997 26.6164 26.6164 25.6997 26.6164 24.569C26.6164 23.4382 25.6997 22.5216 24.569 22.5216ZM20.4742 24.569C20.4742 22.3075 22.3075 20.4742 24.569 20.4742C26.8305 20.4742 28.6638 22.3075 28.6638 24.569C28.6638 26.8305 26.8305 28.6638 24.569 28.6638C22.3075 28.6638 20.4742 26.8305 20.4742 24.569Z" fill="#1A4789"/>
</svg>