<svg xmlns="http://www.w3.org/2000/svg" width="20" height="20" viewBox="0 0 20 20" fill="none">
<path d="M14.1794 12.4881C16.6045 9.17889 16.0718 4.56035 12.9572 1.89008C9.84253 -0.780191 5.19682 -0.601184 2.29687 2.30084C-0.60308 5.20286 -0.778763 9.8487 1.89374 12.9614C4.56623 16.0742 9.18515 16.6035 12.4926 14.1761L12.4914 14.1761C12.5276 14.2244 12.5662 14.2703 12.6097 14.315L17.2585 18.9638C17.73 19.4356 18.4947 19.4359 18.9665 18.9644C19.4384 18.4929 19.4386 17.7283 18.9671 17.2564L14.3183 12.6076C14.2751 12.5639 14.2287 12.5235 14.1794 12.4868V12.4881ZM14.491 7.84647C14.491 11.5143 11.5176 14.4877 7.84979 14.4877C4.18196 14.4877 1.2086 11.5143 1.2086 7.84647C1.2086 4.17864 4.18196 1.20528 7.84979 1.20528C11.5176 1.20528 14.491 4.17864 14.491 7.84647Z" fill="#1A4789"/>
</svg>