<svg width="60" height="60" viewBox="0 0 81 81" fill="none" xmlns="http://www.w3.org/2000/svg">
    <g filter="url(#filter0_d_235_8021)">
    <path d="M23.0731 62.5285L24.2528 63.1184C29.1689 66.0678 34.6744 67.4442 40.1801 67.4442C57.4836 67.4442 71.641 53.2869 71.641 35.9834C71.641 27.725 68.2981 19.6631 62.3994 13.7641C56.5004 7.86514 48.635 4.52255 40.1801 4.52255C22.8767 4.52255 8.71903 18.6799 8.91578 36.1802C8.91578 42.0789 10.6855 47.7814 13.6348 52.6969L14.4213 53.8769L11.2754 65.4781L23.0731 62.5285Z" fill="#00E676"></path>
    <path d="M65.742 10.618C59.0565 3.7361 49.815 0 40.3766 0C20.3205 0 4.19676 16.3203 4.39323 36.1799C4.39323 42.4721 6.1629 48.5678 9.11254 54.0733L4 72.7533L23.0731 67.8375C28.3822 70.7871 34.2809 72.1635 40.1801 72.1635C60.0398 72.1635 76.1635 55.843 76.1635 35.9837C76.1635 26.3486 72.4274 17.3035 65.7423 10.618H65.742ZM40.3766 66.0681C35.0676 66.0681 29.7586 64.6919 25.236 61.939L24.0564 61.349L12.6519 64.2984L15.6012 53.0907L14.8148 51.9107C6.1629 37.9501 10.2922 19.4664 24.4496 10.8145C38.6069 2.1629 56.8936 6.29222 65.5455 20.4496C74.1971 34.6069 70.0678 52.8936 55.9107 61.5455C51.3879 64.4949 45.8824 66.0678 40.3766 66.0678V66.0681ZM57.6801 44.2423L55.5172 43.2591C55.5172 43.2591 52.3714 41.8827 50.4049 40.8995C50.2082 40.8995 50.0117 40.7027 49.815 40.7027C49.225 40.7027 48.8317 40.8995 48.4385 41.0962C48.4385 41.0962 48.242 41.2927 45.4892 44.4388C45.2924 44.832 44.8992 45.0288 44.5059 45.0288H44.3092C44.1127 45.0288 43.7195 44.832 43.5227 44.6356L42.5395 44.2423C40.3766 43.2591 38.4105 42.0791 36.8373 40.5062C36.444 40.113 35.8541 39.7198 35.4608 39.3265C34.0844 37.9501 32.708 36.3769 31.725 34.6072L31.5283 34.214C31.3318 34.0173 31.3318 33.8208 31.135 33.4275C31.135 33.0343 31.135 32.6411 31.3318 32.4443C31.3318 32.4443 32.1183 31.4611 32.708 30.8714C33.1015 30.4779 33.2979 29.8882 33.6912 29.495C34.0844 28.905 34.2812 28.1185 34.0844 27.5286C33.8879 26.5453 31.5283 21.2363 30.9386 20.0566C30.5451 19.4667 30.1521 19.2702 29.5621 19.0734H27.3992C27.0057 19.0734 26.6128 19.2702 26.2193 19.2702L26.0225 19.4667C25.6293 19.6634 25.236 20.0566 24.8428 20.2531C24.4496 20.6466 24.2528 21.0396 23.8596 21.4331C22.4832 23.2028 21.6967 25.3657 21.6967 27.5286C21.6967 29.1015 22.0899 30.6747 22.6799 32.0511L22.8767 32.6411C24.6463 36.3769 27.0057 39.7198 30.1521 42.6691L30.9386 43.4556C31.5283 44.0456 32.1183 44.4388 32.5115 45.0285C36.6408 48.5681 41.3598 51.1242 46.6688 52.5007C47.2588 52.6972 48.0453 52.6972 48.6353 52.8939H50.6014C51.5846 52.8939 52.7643 52.5007 53.5511 52.1075C54.1408 51.7142 54.534 51.7142 54.9272 51.321L55.3207 50.9275C55.714 50.5343 56.1072 50.3378 56.5004 49.9446C56.8936 49.5513 57.2869 49.1581 57.4836 48.7646C57.8769 47.9781 58.0733 46.9949 58.2701 46.012V44.6356C58.2701 44.6356 58.0733 44.4388 57.6801 44.2423Z" fill="white"></path>
    </g>
    <defs>
    <filter id="filter0_d_235_8021" x="0" y="0" width="80.1636" height="80.7532" filterUnits="userSpaceOnUse" color-interpolation-filters="sRGB">
    <feFlood flood-opacity="0" result="BackgroundImageFix"></feFlood>
    <feColorMatrix in="SourceAlpha" type="matrix" values="0 0 0 0 0 0 0 0 0 0 0 0 0 0 0 0 0 0 127 0" result="hardAlpha"></feColorMatrix>
    <feOffset dy="4"></feOffset>
    <feGaussianBlur stdDeviation="2"></feGaussianBlur>
    <feComposite in2="hardAlpha" operator="out"></feComposite>
    <feColorMatrix type="matrix" values="0 0 0 0 0 0 0 0 0 0 0 0 0 0 0 0 0 0 0.15 0"></feColorMatrix>
    <feBlend mode="normal" in2="BackgroundImageFix" result="effect1_dropShadow_235_8021"></feBlend>
    <feBlend mode="normal" in="SourceGraphic" in2="effect1_dropShadow_235_8021" result="shape"></feBlend>
    </filter>
    </defs>
    </svg>